<mxfile host="app.diagrams.net" modified="2024-06-17T05:08:06.256Z" agent="Mozilla/5.0 (Windows NT 10.0; Win64; x64) AppleWebKit/537.36 (KHTML, like Gecko) Chrome/123.0.0.0 Safari/537.36 Edg/123.0.0.0" version="24.5.4" etag="Awrmf2bcP22CMvOIklfp" type="github">
  <diagram name="第 1 页" id="h7JSI6husA0qSXsthhDS">
    <mxGraphModel>
      <root>
        <mxCell id="0" />
        <mxCell id="1" parent="0" />
      </root>
    </mxGraphModel>
  </diagram>
</mxfile>
